<?xml version="1.0" encoding="UTF-8"?>
<svg id="Layer_2" data-name="Layer 2" xmlns="http://www.w3.org/2000/svg" viewBox="0 0 203.42 203.42">
  <defs>
    <style>
      .cls-1 {
        stroke-width: 0px;
      }

      .cls-1, .cls-2 {
        fill: none;
      }

      .cls-2 {
        stroke: #000;
        stroke-miterlimit: 10;
        stroke-width: 2px;
      }

      .cls-3 {
        font-family: BodoniSvtyTwoITCTT-Book, 'Bodoni 72';
        font-size: 21.89px;
      }
    </style>
  </defs>
  <g id="Layer_1-2" data-name="Layer 1">
    <g>
      <g>
        <g>
          <path class="cls-2" d="m98.07,138.6s-.42-15.62,5.02-27.36c5.44-11.74,8.19-25.56,8.19-25.56"/>
          <path class="cls-2" d="m110.81,86.63s-.9-5.72-.95-9.04c-.1-6.69-2.38-12.37-2.38-12.37"/>
          <path class="cls-2" d="m110.71,86.78s-8.55-4.75-7.99-9.19"/>
          <path class="cls-2" d="m110.36,87.77s8.84,2.33,13.08.89"/>
          <path class="cls-2" d="m110.84,86.64s3.71-8.35,2.96-12.77"/>
          <path class="cls-2" d="m110.99,87.53s7.91-10.42,10.29-16.61"/>
          <path class="cls-2" d="m110.68,87.31s1.77-1.57,5.84-4.02c4.76-2.85,2.62-2.83,8.09-5.71"/>
          <path class="cls-2" d="m121.87,84.08s-5.82,4.55-9.95,2.82"/>
          <path class="cls-2" d="m104.83,106.59s7.76,4.83,12.23,4.7"/>
          <path class="cls-2" d="m105.5,106.55s10.63-7.63,14.72-12.84"/>
          <path class="cls-2" d="m105.27,106.25s2.15-.98,6.76-2.12c5.39-1.33,3.34-1.93,9.41-3.08"/>
          <path class="cls-2" d="m116.91,106.45s-6.9,2.64-10.34-.23"/>
          <path class="cls-2" d="m119.04,98.42s-6.9,2.64-10.34-.23"/>
          <path class="cls-2" d="m118.76,92.24s-5.82,4.55-9.95,2.82"/>
          <path class="cls-2" d="m107.56,100.23s-6.7.61-9.58-1.21"/>
          <path class="cls-2" d="m107.13,99.93s-4.36-9.79-5.28-15.26"/>
          <path class="cls-2" d="m107.38,99.8s-1.07-1.56-3.7-4.19c-3.07-3.07-1.53-2.73-5.11-5.93"/>
          <path class="cls-2" d="m99.71,95.46s3.62,4.63,6.83,3.82"/>
          <path class="cls-2" d="m98.22,127.93s-3.76-3.95-6.19-11.9c-5.23-17.13-13.8-18.56-13.8-18.56"/>
          <path class="cls-2" d="m94.03,121.34s-8.55-4.75-7.99-9.19"/>
          <path class="cls-2" d="m100.07,122.26s9.35-5.37,13.35-9.66"/>
          <path class="cls-2" d="m99.95,121.92s1.79-.54,5.47-.73c4.3-.23,2.86-1.23,7.64-1.15"/>
          <path class="cls-2" d="m92.23,117.47s4.98-7.67,4.94-12.14"/>
          <path class="cls-2" d="m92.32,105.38s2.5,6.95-.43,10.33"/>
          <path class="cls-2" d="m89.21,109.91s-6.5,1.74-9.64.43"/>
          <path class="cls-2" d="m88.97,109.52s-1.32-1.36-4.35-3.5c-3.55-2.5-1.97-2.43-6.04-4.97"/>
          <path class="cls-2" d="m80.67,106.54s4.35,3.95,7.38,2.6"/>
          <path class="cls-2" d="m88.72,107.62s1.74-8.97.02-13.11"/>
          <path class="cls-2" d="m83.79,94.96s4.93,5.51,3.48,9.74"/>
        </g>
        <text class="cls-3" transform="translate(47.91 105.27) rotate(-85.39)"><tspan x="0" y="0">O</tspan></text>
        <text class="cls-3" transform="translate(49.43 88.48) rotate(-67.4)"><tspan x="0" y="0">O</tspan></text>
        <text class="cls-3" transform="translate(56.02 72.96) rotate(-48.95)"><tspan x="0" y="0">M</tspan></text>
        <text class="cls-3" transform="translate(67.92 59.92) rotate(-31.96)"><tspan x="0" y="0">A</tspan></text>
        <text class="cls-3" transform="translate(80.09 52.32) rotate(-15.28)"><tspan x="0" y="0">H</tspan></text>
        <text class="cls-3" transform="translate(96.63 48.58) rotate(-3.25)"><tspan x="0" y="0"> </tspan></text>
        <text class="cls-3" transform="translate(102.37 48.28) rotate(4.27)"><tspan x="0" y="0">-</tspan></text>
        <text class="cls-3" transform="translate(110.73 49.11) rotate(11.86)"><tspan x="0" y="0"> </tspan></text>
        <text class="cls-3" transform="translate(116.27 50.05) rotate(22.07)"><tspan x="0" y="0">F</tspan></text>
        <text class="cls-3" transform="translate(128.46 54.89) rotate(38.2)"><tspan x="0" y="0">O</tspan></text>
        <text class="cls-3" transform="translate(141.52 65.64) rotate(54.63)"><tspan x="0" y="0">R</tspan></text>
        <text class="cls-3" transform="translate(149.36 77.63) rotate(65.37)"><tspan x="0" y="0"> </tspan></text>
        <text class="cls-3" transform="translate(151.96 82.61) rotate(76.33)"><tspan x="0" y="0">Y</tspan></text>
        <text class="cls-3" transform="translate(155.39 96.65) rotate(92.99)"><tspan x="0" y="0">O</tspan></text>
        <text class="cls-3" transform="translate(154.25 113.49) rotate(110.36)"><tspan x="0" y="0">U</tspan></text>
        <text class="cls-3" transform="translate(148.49 128.19) rotate(126.44)"><tspan x="0" y="0">R</tspan></text>
        <text class="cls-3" transform="translate(139.53 139.4) rotate(137.04)"><tspan x="0" y="0"> </tspan></text>
        <text class="cls-3" transform="translate(135.78 143.51) rotate(149.07)"><tspan x="0" y="0">H</tspan></text>
        <text class="cls-3" transform="translate(121.24 151.78) rotate(165.54)"><tspan x="0" y="0">E</tspan></text>
        <text class="cls-3" transform="translate(107.66 155.14) rotate(-179.32)"><tspan x="0" y="0">A</tspan></text>
        <text class="cls-3" transform="translate(93.24 154.76) rotate(-164.39)"><tspan x="0" y="0">L</tspan></text>
        <text class="cls-3" transform="translate(80.17 150.96) rotate(-149.48)"><tspan x="0" y="0">T</tspan></text>
        <text class="cls-3" transform="translate(68.09 143.87) rotate(-133.15)"><tspan x="0" y="0">H</tspan></text>
      </g>
      <rect class="cls-1" x="30.24" y="30.07" width="145" height="145"/>
    </g>
  </g>
</svg>